# xmcd CD database file
#
# Track frame offsets:
#	150
#	3000
#	30705
#	51630
#	81510
#	115867
#	128112
#	157615
#
# Disc length: 2188 seconds
#
# Revision: 0
# Processed by: cddbd v1.5.1PL0 Copyright (c) Steve Scherf et al.
# Submitted via: CDex 1.51
#
DISCID=5a088a08
DTITLE=Emiliano Salvador - Nueva Vision
DYEAR=1995
DGENRE=Jazz
TTITLE0=Preludio y Vision
TTITLE1=Nueva Vision
TTITLE2=Angelica
TTITLE3=Puerto Padre
TTITLE4=Son de la Loma
TTITLE5=Convergencia
TTITLE6=El Montuno
TTITLE7=Post-Vision
EXTD=YEAR: 1995
EXTT0=
EXTT1=
EXTT2=
EXTT3=
EXTT4=
EXTT5=
EXTT6=
EXTT7=
PLAYORDER=
